<?xml version="1.0" standalone="no"?><svg xmlns:xlink="http://www.w3.org/1999/xlink" xmlns="http://www.w3.org/2000/svg" viewBox="0 0 1000 461.5250589004428" preserveAspectRatio="xMaxYMax slice"><g transform="scale(1.541896409231642)"><rect x="0" y="0" width="648.5548333333332" height="299.33299999999997" fill="#70c1f0"/><rect x="464.9639266666666" y="65.85325999999999" width="17.959979999999998" height="17.959979999999998" fill="#70c1f0"/><path d="M 464.96 74.83 A 8.98 8.98 0 0 1  473.94 83.81 L 464.96 74.83 A 8.98 8.98 0 0 0 473.94 83.81" fill="#3982e9"/><rect x="614.6304266666666" y="65.85325999999999" width="17.959979999999998" height="17.959979999999998" fill="#70c1f0"/><path d="M 614.63 65.85 A 8.98 8.98 0 0 1  623.61 74.83 L 614.63 65.85 A 8.98 8.98 0 0 0 623.61 74.83" fill="#55dbf6"/><rect x="161.63982" y="111.75098666666666" width="25.94219333333333" height="25.94219333333333" fill="#70c1f0"/><path d="M 174.61 111.75 A 12.97 12.97 0 0 1  187.58 124.72 L 174.61 111.75 A 12.97 12.97 0 0 0 187.58 124.72" fill="#45ebfa"/><path d="M 174.61 124.72 A 12.97 12.97 0 0 1  187.58 137.69 L 174.61 124.72 A 12.97 12.97 0 0 0 187.58 137.69" fill="#65b4ef"/><path d="M 211.53 137.69 A 25.94 25.94 0 0 1  237.47 111.75 L 211.53 137.69 A 25.94 25.94 0 0 0 237.47 111.75" fill="#428bea"/><rect x="261.41748666666666" y="111.75098666666666" width="25.94219333333333" height="25.94219333333333" fill="#70c1f0"/><path d="M 261.42 111.75 A 12.97 12.97 0 0 1  274.39000000000004 124.72 L 261.42 111.75 A 12.97 12.97 0 0 0 274.39000000000004 124.72" fill="#42edfa"/><path d="M 274.39 111.75 A 12.97 12.97 0 0 1  287.36 124.72 L 274.39 111.75 A 12.97 12.97 0 0 0 287.36 124.72" fill="#6dc4f1"/><path d="M 261.42 124.72 A 12.97 12.97 0 0 1  274.39000000000004 137.69 L 261.42 124.72 A 12.97 12.97 0 0 0 274.39000000000004 137.69" fill="#5eacee"/><path d="M 274.39 137.69 A 12.97 12.97 0 0 1  287.36 124.72 L 274.39 137.69 A 12.97 12.97 0 0 0 287.36 124.72" fill="#6ec3f0"/><path d="M 311.31 137.69 A 25.94 25.94 0 0 1  337.25 111.75 L 311.31 137.69 A 25.94 25.94 0 0 0 337.25 111.75" fill="#3d86ea"/><path d="M 361.2 137.69 A 25.94 25.94 0 0 1  387.14 111.75 L 361.2 137.69 A 25.94 25.94 0 0 0 387.14 111.75" fill="#6cc5f1"/><rect x="411.08398666666665" y="111.75098666666666" width="25.94219333333333" height="25.94219333333333" fill="#70c1f0"/><path d="M 411.08 124.72 A 12.97 12.97 0 0 1  424.05 137.69 L 411.08 124.72 A 12.97 12.97 0 0 0 424.05 137.69" fill="#49e7f9"/><path d="M 424.06 124.72 A 12.97 12.97 0 0 1  437.03000000000003 137.69 L 424.06 124.72 A 12.97 12.97 0 0 0 437.03000000000003 137.69" fill="#3e88ea"/><path d="M 57.87 191.57 A 33.92 33.92 0 0 1  91.78999999999999 157.65 L 57.87 191.57 A 33.92 33.92 0 0 0 91.78999999999999 157.65" fill="#347be8"/><rect x="207.53754666666666" y="157.64871333333332" width="33.92440666666666" height="33.92440666666666" fill="#70c1f0"/><path d="M 224.5 174.61 A 16.96 16.96 0 0 1  241.46 157.65 L 224.5 174.61 A 16.96 16.96 0 0 0 241.46 157.65" fill="#4d98ec"/><path d="M 207.54 174.61 A 16.96 16.96 0 0 1  224.5 191.57000000000002 L 207.54 174.61 A 16.96 16.96 0 0 0 224.5 191.57000000000002" fill="#4ee2f7"/><path d="M 224.5 174.61 A 16.96 16.96 0 0 1  241.46 191.57000000000002 L 224.5 174.61 A 16.96 16.96 0 0 0 241.46 191.57000000000002" fill="#47e9f9"/><rect x="257.42638" y="157.64871333333332" width="33.92440666666666" height="33.92440666666666" fill="#70c1f0"/><path d="M 257.43 157.65 A 16.96 16.96 0 0 1  274.39 174.61 L 257.43 157.65 A 16.96 16.96 0 0 0 274.39 174.61" fill="#45ebfa"/><path d="M 274.39 157.65 A 16.96 16.96 0 0 1  291.34999999999997 174.61 L 274.39 157.65 A 16.96 16.96 0 0 0 291.34999999999997 174.61" fill="#5dabee"/><path d="M 257.43 191.57000000000002 A 16.96 16.96 0 0 1  274.39 174.61 L 257.43 191.57000000000002 A 16.96 16.96 0 0 0 274.39 174.61" fill="#4690eb"/><path d="M 274.39 191.57000000000002 A 16.96 16.96 0 0 1  291.34999999999997 174.61 L 274.39 191.57000000000002 A 16.96 16.96 0 0 0 291.34999999999997 174.61" fill="#55a2ed"/><rect x="307.3152133333333" y="157.64871333333332" width="33.92440666666666" height="33.92440666666666" fill="#70c1f0"/><path d="M 307.32 174.61 A 16.96 16.96 0 0 1  324.28 157.65 L 307.32 174.61 A 16.96 16.96 0 0 0 324.28 157.65" fill="#67b6ef"/><path d="M 324.28 157.65 A 16.96 16.96 0 0 1  341.23999999999995 174.61 L 324.28 157.65 A 16.96 16.96 0 0 0 341.23999999999995 174.61" fill="#3ef1fb"/><path d="M 307.32 174.61 A 16.96 16.96 0 0 1  324.28 191.57000000000002 L 307.32 174.61 A 16.96 16.96 0 0 0 324.28 191.57000000000002" fill="#6abaef"/><path d="M 324.28 191.57000000000002 A 16.96 16.96 0 0 1  341.23999999999995 174.61 L 324.28 191.57000000000002 A 16.96 16.96 0 0 0 341.23999999999995 174.61" fill="#59d7f5"/><rect x="357.20404666666667" y="157.64871333333332" width="33.92440666666666" height="33.92440666666666" fill="#70c1f0"/><path d="M 357.2 157.65 A 16.96 16.96 0 0 1  374.15999999999997 174.61 L 357.2 157.65 A 16.96 16.96 0 0 0 374.15999999999997 174.61" fill="#3880e9"/><path d="M 374.17 174.61 A 16.96 16.96 0 0 1  391.13 157.65 L 374.17 174.61 A 16.96 16.96 0 0 0 391.13 157.65" fill="#69b9ef"/><path d="M 357.2 191.57000000000002 A 16.96 16.96 0 0 1  374.15999999999997 174.61 L 357.2 191.57000000000002 A 16.96 16.96 0 0 0 374.15999999999997 174.61" fill="#4d98ec"/><path d="M 374.17 174.61 A 16.96 16.96 0 0 1  391.13 191.57000000000002 L 374.17 174.61 A 16.96 16.96 0 0 0 391.13 191.57000000000002" fill="#69c8f2"/><rect x="407.09288" y="157.64871333333332" width="33.92440666666666" height="33.92440666666666" fill="#70c1f0"/><path d="M 407.09 174.61 A 16.96 16.96 0 0 1  424.04999999999995 157.65 L 407.09 174.61 A 16.96 16.96 0 0 0 424.04999999999995 157.65" fill="#5caaee"/><path d="M 424.06 157.65 A 16.96 16.96 0 0 1  441.02 174.61 L 424.06 157.65 A 16.96 16.96 0 0 0 441.02 174.61" fill="#5ed3f4"/><path d="M 407.09 191.57000000000002 A 16.96 16.96 0 0 1  424.04999999999995 174.61 L 407.09 191.57000000000002 A 16.96 16.96 0 0 0 424.04999999999995 174.61" fill="#4a95eb"/><path d="M 424.06 174.61 A 16.96 16.96 0 0 1  441.02 191.57000000000002 L 424.06 174.61 A 16.96 16.96 0 0 0 441.02 191.57000000000002" fill="#5faeee"/><rect x="103.76877333333333" y="203.54644" width="41.90662" height="41.90662" fill="#70c1f0"/><path d="M 203.55 245.46 A 41.91 41.91 0 0 1  245.46 203.55 L 203.55 245.46 A 41.91 41.91 0 0 0 245.46 203.55" fill="#509cec"/><path d="M 253.44 203.55 A 41.91 41.91 0 0 1  295.35 245.46 L 253.44 203.55 A 41.91 41.91 0 0 0 295.35 245.46" fill="#57d9f6"/><path d="M 353.21 245.46 A 41.91 41.91 0 0 1  395.12 203.55 L 353.21 245.46 A 41.91 41.91 0 0 0 395.12 203.55" fill="#65b4ef"/><path d="M 403.1 203.55 A 41.91 41.91 0 0 1  445.01 245.46 L 403.1 203.55 A 41.91 41.91 0 0 0 445.01 245.46" fill="#4994eb"/><path d="M 452.99 245.46 A 41.91 41.91 0 0 1  494.9 203.55 L 452.99 245.46 A 41.91 41.91 0 0 0 494.9 203.55" fill="#59a7ed"/><rect x="552.7682733333334" y="203.54644" width="41.90662" height="41.90662" fill="#70c1f0"/><rect x="99.77766666666666" y="249.44416666666666" width="49.88883333333333" height="49.88883333333333" fill="#70c1f0"/><path d="M 299.33 249.44 A 49.89 49.89 0 0 1  349.21999999999997 299.33 L 299.33 249.44 A 49.89 49.89 0 0 0 349.21999999999997 299.33" fill="#59d7f5"/><path d="M 399.11 249.44 A 49.89 49.89 0 0 1  449 299.33 L 399.11 249.44 A 49.89 49.89 0 0 0 449 299.33" fill="#64cdf3"/></g></svg>